# xmcd
#
# Track frame offsets: 
#        150
#        13757
#        28448
#        41988
#        55763
#        69858
#        84254
#        99323
#        110263
#        125043
#        137790
#        152123
#        165231
#        178349
#        191751
#        203710
#        218262
#        229839
#        243351
#        255016
#
# Disc length: 3589 seconds
#
# Revision: 0
# Processed by: cddbd v1.5.2PL0 Copyright (c) Steve Scherf et al.
# Submitted via: ExactAudioCopy v0.95b3
#
DISCID=090e0314
DTITLE=Sarah Vaughan - Back up
DYEAR=2005
DGENRE=Jazz
TTITLE0=Ain't misbehavin'
TTITLE1=Summertime
TTITLE2=Just Friends
TTITLE3=Thinking of you
TTITLE4=East of the Sun (and West of the Moon)
TTITLE5=It might as well be Sping
TTITLE6=The Nearness of you
TTITLE7=I cried for you
TTITLE8=Black Coffee
TTITLE9=Can't get out of this Mood
TTITLE10=You're mine, you
TTITLE11=Mean to me
TTITLE12=Nature Boy
TTITLE13=Sinner or Saint
TTITLE14=A Lover's Quarrel
TTITLE15=Our very own
TTITLE16=I love the Guy
TTITLE17=These Things I offer you
TTITLE18=Vanity
TTITLE19=I ran all the way home
EXTD=
EXTT0=
EXTT1=
EXTT2=
EXTT3=
EXTT4=
EXTT5=
EXTT6=
EXTT7=
EXTT8=
EXTT9=
EXTT10=
EXTT11=
EXTT12=
EXTT13=
EXTT14=
EXTT15=
EXTT16=
EXTT17=
EXTT18=
EXTT19=
PLAYORDER=
